# xmcd
#
# Track frame offsets: 
#        224
#        19190
#        35009
#        49575
#        63358
#        83766
#        101777
#        126772
#        139427
#        159354
#        170911
#        186338
#
# Disc length: 2598 seconds
#
# Revision: 1
# Processed by: cddbd v1.5.2PL0 Copyright (c) Steve Scherf et al.
# Submitted via: ExactAudioCopy v1.0b3
#
DISCID=a90a240c
DTITLE=?? - ??
DYEAR=1900
DGENRE=Acid
TTITLE0=?? I
TTITLE1=??
TTITLE2=????
TTITLE3=?????
TTITLE4=????
TTITLE5=?????
TTITLE6=????
TTITLE7=???
TTITLE8=??
TTITLE9=???? (????)
TTITLE10=?????
TTITLE11=?? II
EXTD=
EXTT0=
EXTT1=
EXTT2=
EXTT3=
EXTT4=
EXTT5=
EXTT6=
EXTT7=
EXTT8=
EXTT9=
EXTT10=
EXTT11=
PLAYORDER=
